<svg xmlns="http://www.w3.org/2000/svg" viewBox="0 0 50 50" fill="#D8DEE9">
  <path d="M25 .4C11.3.4.4 11.3.4 25s11 24.6 24.6 24.6 24.6-11 24.6-24.6S38.7.4 25 .4zm0 3.8c11.5 0 20.8 9.2 20.8 20.8 0 1 0 1.7-.2 2.7-.6-.2-1.7-.4-2.9-.4-1 0-2.3.2-3.3.4.2-.8.4-1.5.4-2.5 0-2.1-.8-4.2-2.3-6.2.6-1.7 1.3-5.6-.2-7.1-3.5 0-5.4 2.1-6 2.9-1.7-.6-3.5-1-5.4-1s-3.7.4-5.2 1c-.6-.8-2.7-2.7-6-2.7-1.5 1.2-.8 4.8-.2 6.7-1.5 1.9-2.3 4-2.3 6.2 0 .8.2 1.7.4 2.5-1 0-3.3-.4-4.2-.4s-2.7.2-3.8.6c-.2-1-.2-1.7-.2-2.7C4.2 13.5 13.5 4.2 25 4.2zm20.4 24.5c-.4-.2-1.9-.6-3.3-.6-.8 0-1.9 0-2.9.2 0-.2 0-.2.2-.4.8-.2 2.3-.4 3.3-.4h.2c1.2 0 2.3.2 2.9.4-.2.4-.2.6-.4.8zM30.8 45c-.6.2-1.3.4-1.9.4v-2.9c0-.6.4-1 1-1s1 .4 1 1V45zm-7.7.8c-.6 0-1.3-.2-1.9-.2v-2.9c0-.6.4-1 1-1s1 .4 1 1v3.1zM4.4 28.1c1-.2 2.7-.6 3.7-.6s3.7.2 4.4.4c0 .2.2.4.2.6-1.2 0-3.5-.2-4.6 0-1.5.2-2.9.8-3.5 1.2 0-.7 0-1-.2-1.6zm.4 1.9c.6-.2 1.9-1 3.5-1.2 1.2-.2 3.7 0 4.6 0 1.3 3.1 4.4 5.2 9.2 5.8-.6.4-1.2 1-1.5 1.7-1 1.2-2.9 1.2-4.4 1.2-1.7 0-2.7-1.3-3.7-2.5s-2.1-1.3-2.7-1.3-.8.1-.6.5c1.9 1.3 2.5 2.9 3.3 4.2.8 1.3 2.1 1.9 3.7 1.9h2.9v4.6c-7-2-12.6-7.8-14.3-14.9zM25 41.3c0-.6.4-1 1-1s1 .4 1 1v4.4c-.6 0-1.3.2-1.9.2v-4.6zm7.7 2.9V41c0-2.1-1.2-4.8-3.1-6.2 5-.8 8.1-2.9 9.4-6 1 0 2.3-.2 3.1-.2 1.3 0 2.9.4 3.3.6-1.4 7-6.4 12.5-12.7 15z"/>
</svg>